<mxfile host="app.diagrams.net" modified="2024-04-10T13:30:56.587Z" agent="Mozilla/5.0 (Windows NT 10.0; Win64; x64) AppleWebKit/537.36 (KHTML, like Gecko) Chrome/123.0.0.0 Safari/537.36" version="23.0.2" etag="jauBZpNrta3NDrFMLwbA" type="github">
  <diagram name="PÃ¡gina-1" id="JpZZ5J6rHJfmgtXUo3S7">
    <mxGraphModel>
      <root>
        <mxCell id="0" />
        <mxCell id="1" parent="0" />
      </root>
    </mxGraphModel>
  </diagram>
</mxfile>
